<?xml version="1.0" standalone="no"?>
<!DOCTYPE svg PUBLIC "-//W3C//DTD SVG 20010904//EN"
 "http://www.w3.org/TR/2001/REC-SVG-20010904/DTD/svg10.dtd">
<svg version="1.0" xmlns="http://www.w3.org/2000/svg"
 width="700.000000pt" height="700.000000pt" viewBox="0 0 700.000000 700.000000"
 preserveAspectRatio="xMidYMid meet">
<metadata>
Created by potrace 1.11, written by Peter Selinger 2001-2013
</metadata>
<g transform="translate(0.000000,700.000000) scale(0.100000,-0.100000)"
fill="#000000" stroke="none">
<path d="M3285 6994 c-22 -2 -89 -9 -150 -15 -874 -85 -1702 -519 -2288 -1198
-92 -107 -232 -290 -225 -296 6 -5 652 -377 663 -381 6 -3 42 35 81 83 239
303 573 574 919 746 276 138 518 213 845 264 163 25 577 25 740 0 491 -76 891
-243 1274 -531 142 -106 342 -298 446 -426 41 -51 84 -104 96 -118 l20 -25
335 193 c184 106 335 194 337 195 6 5 -147 204 -235 306 -569 658 -1361 1079
-2228 1184 -122 15 -542 28 -630 19z"/>
<path d="M3180 5904 c-430 -61 -814 -220 -1165 -483 -127 -96 -359 -327 -453
-453 -251 -335 -399 -680 -473 -1101 -19 -105 -22 -159 -21 -387 0 -224 3
-283 21 -383 93 -525 302 -941 656 -1305 187 -193 335 -309 545 -430 251 -144
533 -241 844 -292 174 -29 559 -29 731 0 452 74 823 237 1164 510 53 42 157
140 231 216 349 360 558 779 651 1301 18 100 21 158 21 388 0 250 -2 280 -26
410 -99 524 -315 942 -671 1301 -375 378 -792 595 -1335 695 -146 27 -568 35
-720 13z m160 -307 c0 -104 34 -995 45 -1190 l7 -108 -29 7 c-15 4 -29 8 -30
9 -2 1 -14 260 -27 576 -14 316 -27 627 -30 692 l-6 117 35 0 35 0 0 -103z
m556 75 c8 -5 14 -136 19 -444 l8 -438 -32 0 -31 0 -1 88 c0 48 -4 237 -8 419
-5 183 -6 344 -3 358 4 25 25 32 48 17z m-1366 -219 c0 -10 20 -254 44 -543
31 -365 41 -529 34 -537 -22 -27 -35 -13 -41 45 -24 234 -87 1027 -83 1038 8
21 46 18 46 -3z m1664 -126 c3 -12 6 -97 6 -189 0 -155 -1 -168 -18 -168 -38
0 -42 18 -42 200 0 97 3 179 6 182 11 12 42 -5 48 -25z m-1116 -234 c17 -350
17 -333 -12 -333 -30 0 -29 -5 -52 329 -17 261 -17 260 32 261 20 0 21 -7 32
-257z m1677 8 c7 -126 -1 -281 -14 -281 -3 0 -13 5 -21 10 -12 8 -16 44 -18
200 -2 105 -1 198 2 206 4 11 10 12 25 5 16 -9 19 -28 26 -140z m-1122 62 c3
-5 8 -125 12 -269 l8 -261 -31 5 -30 4 -6 166 c-3 92 -9 211 -12 265 l-6 97
30 0 c17 0 33 -3 35 -7z m1390 -794 c8 -765 5 -963 -16 -956 -14 4 -25 443
-29 1219 -3 515 -3 517 17 504 20 -13 20 -29 28 -767z m-554 632 c13 -8 15
-86 19 -503 2 -277 -1 -499 -6 -506 -5 -7 -16 -10 -25 -6 -16 6 -17 49 -17
515 0 280 3 509 8 509 4 0 14 -4 21 -9z m-1646 -33 c4 -13 9 -94 13 -180 6
-143 5 -158 -10 -164 -10 -4 -21 -3 -26 2 -5 5 -15 85 -22 177 -10 145 -10
170 3 178 23 14 36 10 42 -13z m-972 -325 c34 -337 34 -320 8 -328 -11 -4 -22
-5 -24 -3 -2 2 -18 126 -35 276 l-31 273 22 35 c11 19 24 33 27 30 2 -3 17
-130 33 -283z m2323 107 l26 -10 0 -180 c0 -172 -1 -180 -19 -180 -11 0 -22 3
-24 8 -7 11 -20 372 -14 372 3 0 17 -4 31 -10z m-2056 -455 l39 -430 -20 -22
c-11 -13 -21 -22 -23 -20 -1 1 -21 199 -45 439 -42 428 -42 438 -24 458 10 11
22 17 26 13 4 -5 25 -201 47 -438z m-399 -480 c50 -451 91 -835 91 -852 0 -18
-4 -33 -10 -33 -5 0 -11 15 -14 33 -6 32 -189 1460 -201 1568 -5 43 -3 64 10
89 9 18 20 28 25 24 4 -5 49 -378 99 -829z m-218 91 c24 -190 40 -348 36 -352
-4 -4 -11 -3 -16 2 -5 5 -30 158 -57 341 -44 303 -46 335 -34 375 l13 43 7
-32 c4 -17 27 -187 51 -377z m3257 41 c2 -297 1 -318 -15 -315 -9 2 -20 14
-24 28 -4 14 -7 157 -8 318 l-1 293 23 -3 22 -3 3 -318z m-1238 194 c184 -41
332 -111 439 -206 233 -207 366 -436 435 -746 57 -258 106 -726 142 -1358 16
-285 16 -294 -2 -312 -23 -22 -203 -99 -311 -133 -238 -75 -407 -104 -656
-113 l-188 -6 8 54 c4 30 7 299 8 599 0 567 -5 653 -50 870 -8 36 -11 68 -7
71 4 4 54 25 112 48 127 51 170 81 170 120 0 28 -29 62 -63 74 -10 4 -55 -8
-105 -27 -160 -62 -311 -104 -467 -132 -138 -24 -407 -15 -515 18 -138 41
-300 131 -354 195 -85 101 -87 255 -4 423 34 70 57 101 135 178 52 50 99 92
105 92 9 0 9 -3 0 -12 -7 -7 -12 -27 -12 -44 0 -68 98 -101 139 -48 12 15 21
40 21 55 0 52 -65 93 -109 69 -44 -23 -18 0 42 38 200 126 465 225 677 252 97
13 312 3 410 -19z m1790 -303 l0 -288 -25 0 -25 0 0 300 0 300 25 -12 25 -11
0 -289z m258 -423 c3 -501 -8 -775 -34 -830 l-19 -40 -3 60 c-2 33 -1 318 3
633 l7 573 22 -3 c21 -3 21 -4 24 -393z m-3618 235 c0 -49 -16 -100 -32 -100
-4 0 -8 15 -8 34 0 18 -3 47 -6 63 -4 21 -1 35 11 46 24 25 35 12 35 -43z
m-375 -332 c8 -21 106 -811 101 -815 -7 -7 -14 38 -64 387 -64 444 -64 440
-51 440 5 0 12 -6 14 -12z m447 -392 c10 -91 9 -109 -2 -116 -8 -5 -16 -8 -18
-6 -2 3 -32 239 -32 261 0 5 9 0 20 -10 15 -16 22 -44 32 -129z m483 -183 c3
-32 8 -75 10 -96 4 -28 1 -39 -11 -44 -26 -10 -32 7 -39 105 -7 88 -7 92 13
92 18 0 21 -8 27 -57z m459 48 c6 -9 36 -432 36 -501 -1 -30 -3 -40 -9 -30 -5
8 -16 112 -25 230 -9 118 -19 236 -22 263 -4 29 -2 47 4 47 6 0 13 -4 16 -9z
m-1085 -426 c18 -159 34 -301 37 -313 3 -16 1 -23 -8 -20 -8 3 -22 95 -44 294
-41 365 -42 374 -25 344 5 -8 23 -145 40 -305z m3419 15 c-2 -161 -6 -210 -18
-227 -8 -13 -18 -23 -22 -23 -5 0 -8 111 -8 247 0 242 0 247 23 271 l22 24 3
-44 c2 -23 2 -135 0 -248z m-554 -312 c6 -326 2 -444 -15 -416 -11 17 -12 748
-1 748 5 0 12 -150 16 -332z m-1959 220 c7 -21 33 -362 28 -370 -8 -14 -21 -9
-27 10 -3 9 -10 73 -16 142 -5 69 -13 149 -16 178 -4 43 -3 52 11 52 8 0 18
-6 20 -12z m-461 -270 c11 -87 38 -408 34 -418 -1 -5 -8 -6 -15 -2 -7 4 -19
91 -32 225 -25 259 -24 237 -7 237 10 0 17 -15 20 -42z m278 -388 c12 -79 9
-172 -4 -168 -15 5 -23 43 -33 145 -6 69 -6 75 12 71 13 -2 20 -16 25 -48z"/>
<path d="M2792 3813 c-24 -9 -44 -64 -37 -100 8 -42 57 -77 95 -68 72 17 99
106 46 151 -26 23 -72 30 -104 17z"/>
<path d="M239 4773 c-106 -277 -176 -559 -216 -868 -24 -190 -24 -623 1 -810
56 -434 161 -785 343 -1148 186 -373 403 -669 706 -964 521 -507 1222 -849
1940 -947 l97 -13 0 393 0 392 -52 7 c-88 11 -326 71 -438 110 -410 143 -761
366 -1066 677 -410 417 -657 917 -751 1518 -25 162 -25 606 0 765 24 147 61
311 97 426 16 52 26 97 22 100 -5 5 -508 297 -665 386 -4 2 -12 -8 -18 -24z"/>
<path d="M6415 4609 c-181 -105 -333 -194 -337 -197 -4 -4 11 -68 33 -142 83
-282 115 -541 106 -854 -6 -226 -22 -347 -72 -551 -121 -502 -355 -917 -724
-1286 -227 -226 -442 -380 -726 -522 -212 -105 -510 -203 -727 -237 l-78 -13
0 -392 0 -392 98 13 c478 66 965 245 1379 507 1362 864 1957 2526 1453 4059
-22 68 -48 140 -58 160 l-17 38 -330 -191z"/>
</g>
</svg>
