<?xml version="1.0" encoding="utf-8"?>
<!-- Generator: Adobe Illustrator 23.0.3, SVG Export Plug-In . SVG Version: 6.00 Build 0)  -->
<!DOCTYPE svg PUBLIC "-//W3C//DTD SVG 1.1//EN" "http://www.w3.org/Graphics/SVG/1.1/DTD/svg11.dtd" [
	<!ENTITY ns_extend "http://ns.adobe.com/Extensibility/1.0/">
	<!ENTITY ns_ai "http://ns.adobe.com/AdobeIllustrator/10.0/">
	<!ENTITY ns_graphs "http://ns.adobe.com/Graphs/1.0/">
	<!ENTITY ns_vars "http://ns.adobe.com/Variables/1.0/">
	<!ENTITY ns_imrep "http://ns.adobe.com/ImageReplacement/1.0/">
	<!ENTITY ns_sfw "http://ns.adobe.com/SaveForWeb/1.0/">
	<!ENTITY ns_custom "http://ns.adobe.com/GenericCustomNamespace/1.0/">
	<!ENTITY ns_adobe_xpath "http://ns.adobe.com/XPath/1.0/">
]>
<svg version="1.1"
	 id="svg2848" xmlns:x="&ns_extend;" xmlns:i="&ns_ai;" xmlns:graph="&ns_graphs;" inkscape:version="0.44.1" sodipodi:docbase="/home/fizyk/anizo/wiki/SVG/promocja" sodipodi:docname="Wikimedia_Community_Logo.svg" sodipodi:version="0.32" xmlns:cc="http://web.resource.org/cc/" xmlns:dc="http://purl.org/dc/elements/1.1/" xmlns:inkscape="http://www.inkscape.org/namespaces/inkscape" xmlns:rdf="http://www.w3.org/1999/02/22-rdf-syntax-ns#" xmlns:sodipodi="http://sodipodi.sourceforge.net/DTD/sodipodi-0.dtd" xmlns:svg="http://www.w3.org/2000/svg"
	 xmlns="http://www.w3.org/2000/svg" xmlns:xlink="http://www.w3.org/1999/xlink" x="0px" y="0px" width="900px" height="900px"
	 viewBox="0 0 900 900" style="enable-background:new 0 0 900 900;" xml:space="preserve">
<style type="text/css">
	.st0{fill:#990000;}
	.st1{fill:#006699;}
</style>
<metadata  id="metadata1970">
	<rdf:RDF>
		<cc:Work  rdf:about="">
			<dc:format>image/svg+xml</dc:format>
			<dc:type  rdf:resource="http://purl.org/dc/dcmitype/StillImage"></dc:type>
		</cc:Work>
	</rdf:RDF>
	<sfw  xmlns="&ns_sfw;">
		<slices></slices>
		<sliceSourceBounds  bottomLeftOrigin="true" height="897.2" width="900" x="0" y="2.8"></sliceSourceBounds>
	</sfw>
</metadata>
<sodipodi:namedview  bordercolor="#666666" borderopacity="1.0" gridtolerance="10.0" guidetolerance="10.0" height="900px" id="base" inkscape:current-layer="svg2848" inkscape:cx="450" inkscape:cy="450" inkscape:pageopacity="0.0" inkscape:pageshadow="2" inkscape:window-height="670" inkscape:window-width="950" inkscape:window-x="0" inkscape:window-y="0" inkscape:zoom="0.51444444" objecttolerance="10.0" pagecolor="#ffffff" width="900px">
	</sodipodi:namedview>
<g id="layer1" transform="matrix(2,0,0,2,-61.4375,-67.125)">
	<g transform="translate(0.000000,1024.000000) scale(0.100000,-0.100000)">
		<path d="M2434,9207.9c-7.3-0.8-30.8-3.5-52-5.4c-301.1-31.6-597.5-159-839.3-361.5c-44.7-37-146.3-138.6-183.3-183.3
			c-200.2-239.1-317.2-507.4-360.4-825.1c-9.6-70.5-9.6-308.4,0-378.8c43.1-317.6,160.2-586,360.4-825.1
			c37-44.7,138.6-146.3,183.3-183.3c239.1-200.2,507.4-317.2,825.1-360.4c70.5-9.6,308.4-9.6,378.8,0
			c317.6,43.1,586,160.2,825.1,360.4c44.7,37,146.3,138.6,183.3,183.3c200.2,239.1,317.2,507.4,360.4,825.1
			c9.6,70.5,9.6,308.4,0,378.8c-43.1,317.6-160.2,586-360.4,825.1c-37,44.7-138.6,146.3-183.3,183.3
			c-238.3,199.4-509.4,318-822.7,360c-33.9,4.6-83.2,6.5-174.4,7.3C2504.8,9209.1,2441.3,9208.7,2434,9207.9z M2453.2,9041.6
			c0-45,3.1-142.8,7.3-235.6c2.3-45.4,5-110.5,6.2-144.4c4.2-120.1,16.9-435.4,18.9-463.5l1.9-28.1l-17.3,1.9
			c-9.6,0.8-18.5,3.1-20,4.2c-1.2,1.5-3.8,28.1-5.4,59.3c-6.9,137.1-29.6,668.7-32,746.5l-2.3,85.5l10.8,1.5
			c5.8,0.8,15.4,1.9,21.6,2.3l10.4,0.4V9041.6z M2821.7,9050.8c0.4-0.4,1.5-116.7,2.7-258.3c1.5-142.1,3.5-269.5,4.6-283.4
			c1.2-14.2,0.8-26.6-1.2-27.3c-1.5-1.2-11.2-1.2-20.8,0l-17.7,1.5l-2.7,112c-1.5,62-3.5,130.5-4.2,152.8
			c-3.1,68.1-5.8,299.5-3.5,305.3c1.5,4.2,5.8,4.6,21.9,1.9C2812.1,9053.2,2821.3,9051.2,2821.7,9050.8z M1931.2,8921.9
			c2.3-3.5,20.4-215.6,42.7-493.2c7.3-94.3,14.6-180.6,15.8-191.3c1.9-19.6,1.5-20.4-10.8-28.1c-6.9-4.2-13.9-7.7-15.4-7.7
			c-1.2,0-3.5,10-4.6,22.3c-5.4,50-26.2,291.8-40.8,466.6c-8.5,102.8-16.2,194.8-17.3,204.8c-1.9,16.9-1.5,18.5,8.5,23.9
			C1921.6,8925.7,1928.5,8926.9,1931.2,8921.9z M2991.1,8844.5c10.8-3.9,11.9-5.8,14.2-27.7c3.9-38.5,2.7-222.5-1.5-222.5
			c-11.2,0-34.3,13.1-36.2,20.4c-1.2,4.6-2.3,59.3-2.3,121.3C2965.3,8861,2963.7,8853.7,2991.1,8844.5z M2280,8826.4
			c0-10.4,2.7-67.8,5.8-128.2c3.1-60.4,6.5-137.1,8.1-170.2c2.7-67,3.5-64.7-22.3-66.2c-12.7-0.4-12.7-0.4-13.5,18.9
			c-0.8,10.8-2.7,44.3-5,75.1c-1.9,30.8-6.5,97.4-9.6,148.2c-3.1,50.8-6.9,101.3-8.1,112c-2.3,19.2-1.9,20,8.5,23.9
			c6.2,2.3,16.9,4.2,23.9,4.2C2280,8844.5,2280,8844.5,2280,8826.4z M3348,8773.6l13.1-5.4l2.7-51.6c1.2-28.1,1.9-88.9,1.2-134.8
			l-1.2-83.9l-16.2,8.1l-16.2,7.7l-1.2,127.8c-0.8,70.5-0.4,130.1,0.4,132.8C3332.2,8780.2,3332.2,8780.2,3348,8773.6z M2645,8723.2
			c2.3-2.3,7.7-189,8.1-283.7l0.4-57l-18.1,2.7c-10.4,1.2-18.9,2.3-19.2,2.7c-1.2,0.8-12.7,286.1-12.7,313.8v28.5l19.6-2.3
			C2634.2,8726.3,2643.8,8724.4,2645,8723.2z M3531.6,8695.9c4.6-5.4,5.4-89.7,6.5-554.8c1.2-534,1.2-547.9-5.8-547.9
			c-4.2,0-10,2.3-13.5,5c-5.8,4.2-6.5,50.8-8.5,507c-1.5,276.4-3.5,527.5-4.6,557.9l-2.3,55.4l11.2-8.1
			C3521.2,8705.9,3528.5,8699.3,3531.6,8695.9z M3186.3,8616.9c1.9-1.5,3.8-23.5,4.2-48.5c1.9-85.1,2.3-606.8,0.4-608.3
			c-0.8-0.8-7.7,1.2-15.4,4.2l-13.9,5.8v327.6V8625l10.8-2.3C3178.2,8621.2,3184.4,8618.9,3186.3,8616.9z M2123.7,8595.4
			c1.2-10.4,3.1-33.9,4.2-53.1c1.2-18.9,3.8-62,6.2-95.5c4.6-67.8,3.9-72-18.1-72c-11.6,0-13.1,1.2-14.6,12.7
			c-3.8,22.7-17.3,212.1-15.4,215.2c1.9,2.7,21.9,9.6,31.2,10.4C2119.4,8613.5,2122.5,8605.4,2123.7,8595.4z M1486.9,8497.2
			c4.2-40.8,12.7-126.3,18.9-189.8c6.5-63.5,11.9-117.4,11.9-119.7c0-4.6-29.6-19.2-32.7-16.2c-1.9,1.9-40.4,342.6-40.4,358.1
			c0,9.2,29.6,48.1,33.5,43.9C1479.2,8572.7,1483,8538.4,1486.9,8497.2z M2996.5,8456.8l11.2-6.5l0.4-83.2
			c0.4-45.4,1.2-96.2,1.2-112.8c0.8-34.7-3.5-40.4-24.3-33.1l-11.9,4.2v33.1c0,18.5-1.2,72-2.7,119.3l-2.3,85.5h8.9
			C2981.5,8463.3,2990.3,8460.2,2996.5,8456.8z M1655.9,8307.4c6.9-73.9,18.1-198.7,25.4-277.2l13.1-142.4l-15-15l-14.6-15
			l-2.7,30.4c-1.5,16.9-9.2,95.5-17.3,174.8c-8.1,79.3-19.6,194.4-25.4,255.6l-10.8,110.9l15,13.9c13.5,12.7,15,13.1,17.7,6.2
			C1642.8,8445.6,1649.4,8381.7,1655.9,8307.4z M1367.5,8260.8c8.5-75.8,30.8-277.6,50.1-448.1c19.2-170.6,37.3-334.9,40.8-365.8
			c3.1-30.8,8.5-77.4,11.6-103.9c5.4-45,5.4-48.1-0.8-52.7c-9.2-6.9-13.1-6.2-13.1,1.9c0,3.5-3.5,32.7-7.7,64.3
			c-6.9,52.7-18.5,142.1-44.3,342.7c-5.4,40.4-15.8,120.9-23.1,179c-7.7,58.1-18.9,144.8-25,192.5c-6.2,47.7-16.6,129.4-23.1,182.1
			c-6.9,52.4-11.2,98.9-10,104c2.7,10.4,25.4,46.6,27.7,44.3C1351.4,8399.8,1359.1,8337.1,1367.5,8260.8z M1249.7,8094.9
			c5.8-46.2,16.6-130.5,23.9-187.9c7.3-57,16.6-128.2,20.8-157.9l7.3-53.9l-8.1-6.9c-4.6-3.9-9.2-5.4-10.8-3.9
			c-1.5,1.5-4.6,16.9-6.9,33.9c-2.3,16.9-16.6,115.9-32,219.4l-27.3,188.6l8.9,26.2c4.6,14.2,9.6,25.8,10.8,25.8
			C1237.8,8178.4,1243.6,8140.7,1249.7,8094.9z M3363.4,8145.3c5.4-5.4,6.2-29.3,6.2-206v-199.8h-10.8c-23.5,0-23.1-5.8-24.6,212.9
			l-1.2,199h12.3C3351.8,8151.5,3360.3,8148.8,3363.4,8145.3z M2520.6,8076.4c87-13.1,162.9-37.3,237.9-75.8
			c48.5-25,71.6-42.4,125.5-93.9c80.1-76.6,129.4-143.6,175.6-238.3c67.4-137.8,93.6-259.9,126.7-587.1
			c15-146.7,34.6-412.7,38.9-521.7c1.2-31.6,3.8-83.5,6.2-115.5c4.2-67.8,9.2-58.5-50.4-87.4c-82.8-40-162.5-67.8-267.6-93.6
			c-128.6-31.6-211.8-41.6-338.8-42l-92.4-0.4l0.8,44.3c0,24.3,2.3,80.8,4.6,125.1c11.6,214.4,9.2,485.1-5.8,635.2
			c-8.5,86.2-25,191-34.3,214.1c-1.9,5,6.9,9.2,45,22.3c69.7,24.3,130.1,54.7,139.4,69.7c16.6,28.5-13.1,69.3-50.8,69.3
			c-6.5,0-26.2-6.9-44.3-15c-86.2-39.7-259.1-86.2-358.8-96.6c-68.9-7.3-175.9-3.1-250.2,10.4c-40.4,7.3-112.8,34.7-173.2,65.8
			c-69.7,36.2-112.4,84.3-125.1,141.3c-6.9,30.8-5,92.4,3.8,127c9.6,38.1,36.6,93.6,61.2,125.9c109.7,144.4,336.1,269.5,568.3,313.4
			C2336.6,8086.8,2441.3,8088.3,2520.6,8076.4z M3708.3,8064.5c13.9-5.8,15.4-7.3,15.4-20.4c0.8-105.1-1.5-345.3-3.5-355.4
			c-0.4-3.5-20.4-3.9-28.9-0.8c-5.4,1.9-6.2,22.7-6.2,192.5c0,121.7,1.5,190.2,3.8,190.2C3691,8070.6,3699.9,8067.9,3708.3,8064.5z
			 M3876.6,7853.1l13.9-5.8l-2.7-318.8c-3.1-406.2-3.5-418.1-18.1-453.1c-23.9-57.4-22.7-68.9-20.4,182.9
			c0.8,125.9,2.7,253.3,3.5,283c0.8,29.6,1.5,113.2,1.9,186c0,87.8,1.2,131.7,3.9,131.7C3860.8,7858.9,3868.9,7856.2,3876.6,7853.1z
			 M1561.2,7757.2c2.3-31.2,1.5-34.3-9.6-58.9l-12.3-26.2l-4.6,38.5c-7.3,61.6-7.3,64.3,7.3,73.5c6.5,4.6,13.5,7.7,14.6,6.9
			S1560,7775,1561.2,7757.2z M1323.3,7525.1c3.5-31.6,30.4-241,44.3-343.8c20.8-159,22.3-181.7,13.1-172.1
			c-1.2,1.2-10,54.7-19.2,119c-60.1,415-59.7,412.3-54.7,415.4C1317.1,7550.5,1320.6,7546.6,1323.3,7525.1z M1600.5,7348.8
			c2.3-9.6,13.5-114,13.5-126.7c0-10.8-13.9-20.8-20-14.6c-1.9,1.9-6.9,34.6-10.8,72.4c-4.2,38.1-8.5,77.8-9.6,88.2l-2.3,19.2
			l13.5-15.4C1592.4,7363.4,1599.3,7353,1600.5,7348.8z M1911.2,7203.6c4.2-3.9,6.9-19.2,10.4-60.8c5.8-75.1,6.5-69.3-9.2-69.3
			c-16.2,0-15.8-1.2-21.2,66.6c-5.4,68.9-5.4,68.1,5,68.1C1901.1,7208.2,1907.7,7205.9,1911.2,7203.6z M2216.1,7197.8
			c0.8-3.9,2.7-27,4.2-51.2c1.2-24.3,4.6-78.9,7.7-121.3c10.8-155.5,11.2-175.2,4.6-175.2c-7.3,0-8.1,5.8-16.6,115.5
			c-3.1,45.4-8.9,117-12.7,159c-3.5,42-5.8,77-4.6,77.8C2203,7207.1,2214.2,7203.6,2216.1,7197.8z M1492.3,7123.9
			c2.3-3.5,16.9-126.7,35-294.9c5.4-50.8,10.8-99.7,11.9-109l1.9-16.6l-9.6,6.2c-7.3,5-10,10-10,18.9c0,24.3-16.6,184-29.3,281.8
			c-7.3,55.4-13.1,104.3-13.1,109C1479.2,7127.4,1488.4,7130.5,1492.3,7123.9z M3714.1,6963l-2.7-160.9l-9.6-14.2
			c-21.9-32.3-20.8-38.5-19.6,141.7l0.8,165.2l14.2,14.6c7.7,7.7,15.4,14.2,16.9,14.2C3715.3,7123.5,3715.3,7051.2,3714.1,6963z
			 M3358,6707.7c1.9-223.7,1.5-241-4.6-247.9c-3.8-4.2-7.3-6.9-8.5-5.8c-2.7,3.1-6.5,490.9-3.5,493.6c1.5,1.5,5.4,2.3,8.9,1.9
			C3355.3,6948.4,3356.4,6921,3358,6707.7z M2100.6,6861c2.7-23.9,12.3-138.2,16.2-192.1c2.3-36.2,2.3-37.3-6.2-40
			c-4.6-1.5-10-1.2-11.5,0.8c-2.7,2.7-11.2,88.2-21.6,219.8l-2.7,31.6h11.9C2097.9,6881,2098.7,6880.2,2100.6,6861z M1798,6726.2
			c2.7-2.7,4.6-12.3,4.6-21.9c0-10,4.6-62,9.6-115.9c14.6-147.5,15.8-167.5,9.2-163.6c-10,5.8-18.9,14.6-16.9,16.9
			c0.8,1.5-0.8,20.8-3.8,42.7c-2.7,22.3-6.2,58.5-7.7,80.9c-1.5,22.3-5,63.1-8.1,90.5c-7.3,67.4-6.9,75.1,1.5,75.1
			C1790.3,6730.8,1795.3,6728.9,1798,6726.2z M1980.1,6467.1c1.2-8.5,3.5-40,5-70.1c2.7-57.8,1.5-62-14.2-50
			c-4.6,3.5-7.7,18.1-12.3,62c-8.1,79.3-8.5,76.2,6.5,74.7C1976.2,6482.5,1977.8,6481,1980.1,6467.1z"/>
		<path d="M1842.6,7892c-40-17.3-43.1-71.6-5.4-90.9c27.3-13.9,55.1-7.3,69.3,16.6C1933.5,7861.6,1889.6,7912.4,1842.6,7892z"/>
		<path d="M2103.7,7855c-37-22.7-37-77.4,0-100.1c36.6-21.9,83.9,6.9,83.9,50.8C2187.6,7848.1,2139.1,7876.6,2103.7,7855z"/>
	</g>
	<path id="path4005" class="st0" d="M255.7,33.6c-76.8,0-144.6,38.5-185.2,97.3L114,156c31.8-43.9,83.4-72.4,141.7-72.4
		s109.9,28.6,141.7,72.4l43.5-25.1C400.3,72.1,332.5,33.6,255.7,33.6z"/>
	<path id="path4003" class="st1" d="M46.8,174.9c-10.4,25.9-16.1,54.1-16.1,83.6c0,115.8,87.5,211.2,200,223.6v-50.4
		c-84.8-12.1-150-85.1-150-173.2c0-20.4,3.5-40.1,10-58.3L46.8,174.9z"/>
	<path id="path3918" class="st1" d="M464.6,174.9l-43.9,25.3c6.5,18.2,10,37.9,10,58.3c0,88.1-65.2,161-150,173.2v50.4
		c112.5-12.4,200-107.9,200-223.6C480.7,229,475,200.8,464.6,174.9z"/>
</g>
</svg>
